Coordinates
version=1
nRows=13
nColumns=40
inDegrees=yes

Units are S.I. units (second, meters, Newtons, ...)
Angles are in degrees.

endheader
time	pelvis_tilt	pelvis_list	pelvis_rotation	pelvis_tx	pelvis_ty	pelvis_tz	hip_flexion_r	hip_adduction_r	hip_rotation_r	knee_angle_r	knee_angle_r_beta	ankle_angle_r	subtalar_angle_r	mtp_angle_r	hip_flexion_l	hip_adduction_l	hip_rotation_l	knee_angle_l	knee_angle_l_beta	ankle_angle_l	subtalar_angle_l	mtp_angle_l	lumbar_extension	lumbar_bending	lumbar_rotation	arm_flex_r	arm_add_r	arm_rot_r	elbow_flex_r	pro_sup_r	wrist_flex_r	wrist_dev_r	arm_flex_l	arm_add_l	arm_rot_l	elbow_flex_l	pro_sup_l	wrist_flex_l	wrist_dev_l
      5.25000000	      5.31109527	     19.56130756	     82.80923073	      0.56828680	      0.97820823	     -0.97900103	    -29.86704447	      0.75040529	      0.36625405	     18.30799052	      0.31953471	     23.45713650	      0.00000000	      0.00000000	      6.41230781	     -7.24220481	     -6.37161810	     11.47404122	      0.20025980	      8.62568570	      0.00000000	      0.00000000	    -36.01552205	      1.46476414	      9.76321482	      9.54039617	    -17.53646919	      2.87727110	    140.31157222	     86.37664639	      0.00000000	      0.00000000	      1.52072476	     -1.26375580	      1.70516649	    136.48842416	     84.39804986	      0.00000000	      0.00000000
      5.26000000	      4.72530892	     19.88673457	     82.24031193	      0.56612901	      0.97692940	     -0.98136497	    -29.87154010	     -0.60041447	      0.42966129	     20.43764819	      0.35670425	     23.60428230	      0.00000000	      0.00000000	      6.02029536	     -6.37336934	     -7.26957233	     12.58641863	      0.21967445	      7.57222268	      0.00000000	      0.00000000	    -35.91977346	      0.66963365	      9.93400829	      9.12979537	    -17.23065424	      2.85493533	    140.23484365	     86.42626195	      0.00000000	      0.00000000	      1.34311981	     -1.16074273	      1.67348060	    136.40044266	     84.42674734	      0.00000000	      0.00000000
      5.27000000	      4.04446653	     20.37272408	     81.64543244	      0.56382631	      0.97616505	     -0.98349863	    -29.87213807	     -2.08540998	      0.65936841	     22.76760723	      0.39736971	     23.24857264	      0.00000000	      0.00000000	      5.38440402	     -5.36700873	     -8.05186218	     13.48891434	      0.23542597	      6.08591547	      0.00000000	      0.00000000	    -35.99994966	     -0.25781067	     10.08312005	      8.81870438	    -16.87293629	      2.71270955	    140.15588150	     86.45608941	      0.00000000	      0.00000000	      1.24906668	     -1.10327742	      1.64227242	    136.33360575	     84.40655442	      0.00000000	      0.00000000
      5.28000000	      3.60592093	     20.76510875	     81.46831386	      0.56114088	      0.97545160	     -0.98512780	    -29.86852087	     -2.93774479	      1.23076620	     24.92026929	      0.43494075	     22.19341575	      0.00000000	      0.00000000	      5.18472086	     -4.63926506	     -7.92677940	     15.00159398	      0.26182721	      5.40860965	      0.00000000	      0.00000000	    -36.07401024	     -0.71297785	      9.95639926	      8.59303212	    -16.42522399	      2.54508027	    140.10135393	     86.41107328	      0.00000000	      0.00000000	      1.30339648	     -1.14545364	      1.59139910	    136.25782536	     84.38551513	      0.00000000	      0.00000000
      5.29000000	      2.93439506	     21.46147104	     81.03410046	      0.55867959	      0.97547856	     -0.98731907	    -29.86388898	     -4.31192422	      1.46466856	     27.50170146	      0.47999524	     20.81294378	      0.00000000	      0.00000000	      4.52692679	     -3.69129111	     -8.38246263	     16.58535984	      0.28946914	      5.14637196	      0.00000000	      0.00000000	    -36.37693126	     -1.57924446	      9.86693979	      8.35172391	    -16.01116560	      2.49787286	    140.11919659	     86.36158883	      0.00000000	      0.00000000	      1.18927726	     -1.12246920	      1.47784109	    136.37926687	     84.34906619	      0.00000000	      0.00000000
      5.30000000	      1.71547429	     22.57653209	     79.71412858	      0.55729002	      0.97646938	     -0.99028173	    -29.85962489	     -6.80677284	      2.45658880	     30.49648117	      0.53226401	     19.70288948	      0.00000000	      0.00000000	      2.91798551	     -2.04130678	     -9.55717836	     17.58687287	      0.30694884	      5.11623916	      0.00000000	      0.00000000	    -36.81675791	     -3.49128384	     10.32205067	      7.95152123	    -15.60154913	      2.54679435	    140.02307721	     86.35918393	      0.00000000	      0.00000000	      1.00333372	     -1.12072150	      1.30244525	    136.38270889	     84.27724403	      0.00000000	      0.00000000
      5.31000000	      0.93400642	     23.51745336	     79.28712502	      0.55514480	      0.97749903	     -0.99289743	    -29.84863034	     -8.20380579	      3.09674447	     33.28325088	      0.58090231	     18.05151502	      0.00000000	      0.00000000	      1.85514398	     -0.85029237	     -9.73832355	     19.05532677	      0.33257819	      5.41221554	      0.00000000	      0.00000000	    -37.24101780	     -4.50714544	     10.19118191	      7.58852726	    -15.05388652	      2.46759519	    140.00222994	     86.38210852	      0.00000000	      0.00000000	      0.90288031	     -1.26363054	      1.12413605	    136.51624443	     84.27369380	      0.00000000	      0.00000000
      5.32000000	      0.35046000	     24.37575467	     79.27136601	      0.55279302	      0.97880016	     -0.99537658	    -29.83377937	     -9.04441224	      3.61024883	     35.91883547	      0.62690194	     16.04576623	      0.00000000	      0.00000000	      0.80485136	      0.11773284	     -9.61098140	     20.36408394	      0.35542031	      5.91868141	      0.00000000	      0.00000000	    -37.66988558	     -5.11684906	      9.79607498	      7.28938722	    -14.38282178	      2.25460582	    140.01284903	     86.39133023	      0.00000000	      0.00000000	      0.89132726	     -1.50621063	      0.94531228	    136.71227777	     84.26865026	      0.00000000	      0.00000000
      5.33000000	     -1.05157736	     25.68841075	     78.66447296	      0.55096616	      0.98079528	     -0.99900741	    -29.81353318	    -11.42465523	      3.84596800	     38.93076366	      0.67947001	     13.50447782	      0.00000000	      0.00000000	     -1.58881001	      2.22192965	    -10.40223142	     19.95541270	      0.34828766	      6.06104128	      0.00000000	      0.00000000	    -38.22249683	     -6.89398153	      9.53504717	      6.80086069	    -13.69856826	      2.15982668	    139.98477003	     86.48359882	      0.00000000	      0.00000000	      0.58036544	     -1.66966922	      0.70867451	    136.98110633	     84.30896312	      0.00000000	      0.00000000
      5.34000000	     -2.14371285	     26.90618366	     78.50864086	      0.54894311	      0.98285274	     -1.00220705	    -29.78188418	    -13.12257554	      3.96993574	     41.78550370	      0.72929462	     10.80507105	      0.00000000	      0.00000000	     -3.93603899	      3.97119878	    -10.78014372	     19.41633928	      0.33887905	      6.51683343	      0.00000000	      0.00000000	    -38.82093514	     -8.13444112	      9.02220346	      6.35078717	    -12.98734457	      2.11225888	    139.99212540	     86.50268191	      0.00000000	      0.00000000	      0.40404592	     -1.97150203	      0.49331905	    137.32084661	     84.35244426	      0.00000000	      0.00000000
      5.35000000	     -2.97834519	     28.09157489	     78.59822462	      0.54667033	      0.98527322	     -1.00483486	    -29.73500332	    -14.33882158	      4.07362102	     44.45155527	      0.77582600	      7.11475758	      0.00000000	      0.00000000	     -6.35885455	      5.44363297	    -10.93449063	     18.67002284	      0.32585337	      7.24192657	      0.00000000	      0.00000000	    -39.56101660	     -8.96353893	      8.32632117	      6.01917724	    -12.31911094	      2.06596185	    140.04742826	     86.52576190	      0.00000000	      0.00000000	      0.31723203	     -2.39171268	      0.23330650	    137.76071868	     84.38667496	      0.00000000	      0.00000000
      5.36000000	     -3.83362913	     29.39294937	     78.54029495	      0.54477656	      0.98804530	     -1.00717632	    -29.64144291	    -15.67954586	      4.25166989	     47.12746661	      0.82252946	      3.46550455	      0.00000000	      0.00000000	     -9.11380032	      7.03309491	    -11.09430363	     17.48020564	      0.30508714	      7.33242765	      0.00000000	      0.00000000	    -40.44381477	     -9.92961895	      7.69981379	      5.77053744	    -11.63452779	      1.96172405	    140.11292192	     86.56296689	      0.00000000	      0.00000000	      0.23412568	     -2.80888378	      0.05974906	    138.21335603	     84.41647447	      0.00000000	      0.00000000
      5.37000000	     -4.43770582	     30.54524279	     78.66684861	      0.54284132	      0.99075730	     -1.00929073	    -29.43585867	    -16.54345998	      4.38600317	     49.68413169	      0.86715168	     -0.00122009	      0.00000000	      0.00000000	    -11.69916449	      8.27584901	    -10.90742916	     16.46293926	      0.28733249	      7.78761362	      0.00000000	      0.00000000	    -41.25889244	    -10.51567679	      6.94895767	      5.57986141	    -10.98426910	      1.97452647	    140.14147388	     86.52290992	      0.00000000	      0.00000000	      0.08791825	     -3.28454530	     -0.07756960	    138.69294289	     84.28859727	      0.00000000	      0.00000000
